# xmcd CD database file generated by OrangeCD 5.2
#
# Track frame offsets:
#	150
#	12595
#	24452
#	33707
#	46620
#	60487
#	70005
#	83782
#	100722
#	116620
#	129630
#	140882
#	151037
#	166275
#	177372
#	187552
#	197692
#	208380
#	219262
#	229192
#	240232
#	251597
#	263212
#	273652
#	285945
#	297115
#	310507
#	322780
#
# Disc length: 4446 seconds
#
# Revision: 4
# Processed by: cddbd v1.5.1PL0 Copyright (c) Steve Scherf et al.
# Submitted via: OrangeCD 5.2
#
DISCID=7e115c1c
DTITLE=Patsy Cline - Hennes største hits
DYEAR=1995
DGENRE=Country
TTITLE0=Crazy
TTITLE1=Sweet Dreams (Of You)
TTITLE2=Walkin' After Midnight
TTITLE3=I Fall To Pieces
TTITLE4=So Wrong
TTITLE5=Back In Baby's Arms
TTITLE6=She's Got You
TTITLE7=Faded Love
TTITLE8=Why Can't He Be You
TTITLE9=You're Stronger Than Me
TTITLE10=Leavin' On Your Mind
TTITLE11=Foolin' 'Round
TTITLE12=The Wayward Wind
TTITLE13=South Of The Border (Down Mexico Way)
TTITLE14=I Love You So Much It Hurts
TTITLE15=Seven Lonely Days
TTITLE16=San Antonio Rose
TTITLE17=Your Cheatin' Heart
TTITLE18=Blue Moon Of Kentucky
TTITLE19=Crazy Arms
TTITLE20=Half As Much
TTITLE21=Lonely Street
TTITLE22=Who Can I Count On
TTITLE23=Always
TTITLE24=Shoes
TTITLE25=I Can't help It (If I'm Still In Love With You)
TTITLE26=He Called Me Baby
TTITLE27=Love Letters In The Sand
EXTD=
EXTT0=
EXTT1=
EXTT2=
EXTT3=
EXTT4=
EXTT5=
EXTT6=
EXTT7=
EXTT8=
EXTT9=
EXTT10=
EXTT11=
EXTT12=
EXTT13=
EXTT14=
EXTT15=
EXTT16=
EXTT17=
EXTT18=
EXTT19=
EXTT20=
EXTT21=
EXTT22=
EXTT23=
EXTT24=
EXTT25=
EXTT26=
EXTT27=
PLAYORDER=
